<svg xmlns="http://www.w3.org/2000/svg" viewBox="0 0 500 500"><g id="freepik--background-simple--inject-15"><g id="freepik--simple-background--inject-15"><path d="M259.91,109.42c-5.74-1.6-11.49-3.18-17.29-4.56-18.34-4.37-37.35-5.39-56.2-4.41-39.86,2.08-57.25,22.9-43.48,42.32s31.16,39.55,12.32,58.29S65.4,236.44,72.64,269.74s71,38.16,66,59.67S101,357.17,116.9,386.31s74.64,3.47,93.48,18.73,29,27.75,60.15,32.61,53.63-33.3,87-47.87,67.4-19.43,73.92-53.43-55.8-56.2-52.9-90.89c1.45-17.34,13.31-30.87,22.56-44.73,15.62-23.43,28.5-65.64-6-79.45-15-6-32.22-4.38-48-4-16.42.35-33.45,2.19-49.82.39C284.49,116.23,272.2,112.82,259.91,109.42Z" style="fill:#B0BEC5"></path><path d="M259.91,109.42c-5.74-1.6-11.49-3.18-17.29-4.56-18.34-4.37-37.35-5.39-56.2-4.41-39.86,2.08-57.25,22.9-43.48,42.32s31.16,39.55,12.32,58.29S65.4,236.44,72.64,269.74s71,38.16,66,59.67S101,357.17,116.9,386.31s74.64,3.47,93.48,18.73,29,27.75,60.15,32.61,53.63-33.3,87-47.87,67.4-19.43,73.92-53.43-55.8-56.2-52.9-90.89c1.45-17.34,13.31-30.87,22.56-44.73,15.62-23.43,28.5-65.64-6-79.45-15-6-32.22-4.38-48-4-16.42.35-33.45,2.19-49.82.39C284.49,116.23,272.2,112.82,259.91,109.42Z" style="fill:#fff;opacity:0.699999988079071;isolation:isolate"></path></g></g><g id="freepik--Icons--inject-15"><g id="freepik--icons--inject-15"><path d="M402.11,317.88a17,17,0,0,0-16.95,16.95c0,9.36,16.95,27,16.95,27s16.95-17.68,16.95-27A17,17,0,0,0,402.11,317.88Zm0,23a7.15,7.15,0,1,1,7.14-7.16h0a7.15,7.15,0,0,1-7.14,7.16h0Z" style="fill:#263238"></path><path d="M402.11,362.37a.48.48,0,0,1-.36-.15c-.7-.73-17.09-17.94-17.09-27.39a17.45,17.45,0,0,1,34.9,0c0,9.45-16.39,26.66-17.09,27.39A.49.49,0,0,1,402.11,362.37Zm0-44a16.47,16.47,0,0,0-16.45,16.45c0,8.3,14,23.69,16.45,26.31,2.44-2.62,16.45-18,16.45-26.31a16.46,16.46,0,0,0-16.45-16.44Zm0,23a7.65,7.65,0,1,1,7.64-7.66h0a7.65,7.65,0,0,1-7.64,7.67Zm0-14.29a6.65,6.65,0,1,0,6.64,6.66v0a6.65,6.65,0,0,0-6.64-6.62Z" style="fill:#263238"></path><path d="M192.29,90.58c-7.81-4.12-18.17-4.91-27.69-2.1s-18,9.2-22.26,17a2.57,2.57,0,0,0,3,3.71,2.52,2.52,0,0,0,1.52-1.23c3.66-6.64,10.84-12.08,19.21-14.54s17.18-1.8,23.84,1.71a2.57,2.57,0,0,0,2.4-4.55h0Z" style="fill:#263238"></path><path d="M187.65,99.71a30.29,30.29,0,0,0-36.42,10.82,2.57,2.57,0,0,0,2.88,3.88,2.49,2.49,0,0,0,1.42-1,25.17,25.17,0,0,1,30.07-8.93,2.57,2.57,0,1,0,2.05-4.72Z" style="fill:#263238"></path><path d="M182.94,108.77a18.75,18.75,0,0,0-23,7.11,2.58,2.58,0,0,0,.71,3.57,2.61,2.61,0,0,0,3.57-.67A13.61,13.61,0,0,1,181,113.54a2.57,2.57,0,1,0,1.93-4.77h0Z" style="fill:#263238"></path><path d="M172.94,116.78A6.18,6.18,0,1,0,180.6,121a6.18,6.18,0,0,0-7.66-4.22Z" style="fill:#263238"></path><path d="M401.69,146.49H357a6.62,6.62,0,0,0-6.62,6.62V177a6.62,6.62,0,0,0,6.62,6.62h1.39c-1.39,3.08-4.06,7.77-8.35,10.56,0,0,9.06-.63,18.5-10.56h33.13a6.62,6.62,0,0,0,6.62-6.62V153.11A6.62,6.62,0,0,0,401.69,146.49Z" style="fill:#263238"></path><path d="M350.06,194.68a.5.5,0,0,1-.48-.34.51.51,0,0,1,.2-.58c3.82-2.48,6.34-6.48,7.84-9.64H357a7.13,7.13,0,0,1-7.1-7.12V153.11A7.12,7.12,0,0,1,357,146h44.67a7.12,7.12,0,0,1,7.12,7.12V177a7.12,7.12,0,0,1-7.12,7.12H368.78c-9.42,9.81-18.31,10.53-18.69,10.56ZM357,147a6.12,6.12,0,0,0-6.12,6.12V177a6.12,6.12,0,0,0,6.12,6.12h1.39a.49.49,0,0,1,.45.71,26.94,26.94,0,0,1-6.78,9.47c3.17-.79,9.58-3.14,16.12-10a.48.48,0,0,1,.36-.16h33.13a6.12,6.12,0,0,0,6.12-6.12V153.11a6.12,6.12,0,0,0-6.12-6.12Z" style="fill:#263238"></path><path d="M371.67,164.2a3.41,3.41,0,1,0-3.41,3.41h0a3.4,3.4,0,0,0,3.4-3.4Z" style="fill:#fff"></path><circle cx="379.85" cy="164.2" r="3.41" style="fill:#fff"></circle><path d="M394.84,164.2a3.41,3.41,0,1,0-3.41,3.41,3.41,3.41,0,0,0,3.41-3.41Z" style="fill:#fff"></path><circle cx="92.52" cy="276.46" r="17.67" transform="translate(-26.63 10.39) rotate(-5.62)" style="fill:#263238"></circle><path d="M92.54,294.62a18.17,18.17,0,1,1,18.17-18.17A18.16,18.16,0,0,1,92.54,294.62Zm0-35.34a17.17,17.17,0,1,0,17.17,17.17A17.17,17.17,0,0,0,92.54,259.28Z" style="fill:#263238"></path><polygon points="84.57 265.44 103.63 276.45 84.57 287.46 84.57 265.44" style="fill:#fff"></polygon><path d="M84.57,288a.43.43,0,0,1-.25-.07.48.48,0,0,1-.25-.43v-22a.48.48,0,0,1,.25-.43.5.5,0,0,1,.5,0l19.06,11a.49.49,0,0,1,.2.66.48.48,0,0,1-.2.2l-19.06,11A.45.45,0,0,1,84.57,288Zm.5-21.65v20.28l17.56-10.14Z" style="fill:#263238"></path><path d="M134.66,410.33a16.44,16.44,0,0,1-8.81-2.36c-12.64-7.58-20.09-18.84-23.24-33.08a19.39,19.39,0,0,1-.26-8.93,13.08,13.08,0,0,1,9.77-10.1,3.64,3.64,0,0,1,4.6,2.13,97.33,97.33,0,0,1,3,10,3.24,3.24,0,0,1-2,3.62,44.83,44.83,0,0,1-4.55,2,1.53,1.53,0,0,0-1.17,1.83,1.44,1.44,0,0,0,.17.45,55,55,0,0,0,13.71,21.2c.92.89,1.58.74,2.42-.18a24.9,24.9,0,0,1,3.51-3.3,3.6,3.6,0,0,1,4.63-.05,78.91,78.91,0,0,1,6.9,5.74c2.53,2.48,2.36,4.86-.18,7.33A12.45,12.45,0,0,1,134.66,410.33Z" style="fill:#263238"></path><path d="M134.66,410.83h0a17.06,17.06,0,0,1-9-2.43c-12.3-7.37-20.2-18.61-23.48-33.4a19.7,19.7,0,0,1-.26-9.16A13.54,13.54,0,0,1,112,355.38a4.13,4.13,0,0,1,5.21,2.44,93.44,93.44,0,0,1,3,10.09,3.68,3.68,0,0,1-2.27,4.17c-1.46.74-3,1.43-4.58,2.05-.88.34-1.06.74-.73,1.64a54.82,54.82,0,0,0,13.59,21,1.35,1.35,0,0,0,.8.45c.24,0,.53-.2.9-.61a25.31,25.31,0,0,1,3.58-3.36,4.08,4.08,0,0,1,5.24-.05l.9.71a64.57,64.57,0,0,1,6,5.07,5.53,5.53,0,0,1,2,3.91A5.88,5.88,0,0,1,143.5,407a13,13,0,0,1-8.83,3.79Zm-21.31-54.64a4.11,4.11,0,0,0-1.1.15,12.63,12.63,0,0,0-9.42,9.74,19,19,0,0,0,.26,8.7c3.22,14.51,11,25.54,23,32.76a15.84,15.84,0,0,0,8.54,2.29,11.94,11.94,0,0,0,8.15-3.51,5,5,0,0,0,1.83-3.42,4.57,4.57,0,0,0-1.66-3.2,66.12,66.12,0,0,0-5.95-5l-.9-.71a3.11,3.11,0,0,0-4,.06,24,24,0,0,0-3.44,3.24,2.29,2.29,0,0,1-1.6.93,2,2,0,0,1-1.54-.73,55.8,55.8,0,0,1-13.83-21.39,2,2,0,0,1,.79-2.72,2.23,2.23,0,0,1,.51-.19c1.55-.61,3.07-1.28,4.5-2a2.72,2.72,0,0,0,1.75-3.05,96.59,96.59,0,0,0-3-10A3,3,0,0,0,113.35,356.19Z" style="fill:#263238"></path><path d="M152.4,381.07c-.21,1.59-.33,3.2-.65,4.78a2.34,2.34,0,0,1-2.57,2.09,3.29,3.29,0,0,1-.43-.09c-1.31-.31-2-1.54-1.7-3.16a19.91,19.91,0,0,0-14.66-22.95,7.68,7.68,0,0,1-1.32-.39,2.3,2.3,0,0,1-1.41-2.7,2.16,2.16,0,0,1,2.38-1.92l.24,0a31.35,31.35,0,0,1,6.39,2.13A25,25,0,0,1,152.4,381.07Z" style="fill:#263238"></path><path d="M149.44,388.46a4,4,0,0,1-.84-.1c-1.57-.38-2.41-1.88-2.07-3.74a19.41,19.41,0,0,0-14.29-22.38l-.35-.08a4.45,4.45,0,0,1-1.07-.34,2.79,2.79,0,0,1-1.68-3.25,3,3,0,0,1,1.27-2,2.47,2.47,0,0,1,2-.3,32.32,32.32,0,0,1,6.49,2.16,25.37,25.37,0,0,1,14,22.59v.07c-.06.49-.12,1-.17,1.46-.12,1.1-.25,2.24-.48,3.36A3.12,3.12,0,0,1,151,388,2.71,2.71,0,0,1,149.44,388.46Zm-17.71-31.23a1.42,1.42,0,0,0-.78.22,2,2,0,0,0-.83,1.32,1.82,1.82,0,0,0,1.14,2.16,3.61,3.61,0,0,0,.85.25l.38.09a20.43,20.43,0,0,1,15,23.53c-.25,1.34.26,2.33,1.31,2.58a2,2,0,0,0,1.57-.18,2.18,2.18,0,0,0,.86-1.45c.22-1.07.34-2.19.47-3.28.05-.47.1-1,.17-1.43a24.37,24.37,0,0,0-13.49-21.67,30.87,30.87,0,0,0-6.28-2.09,1.57,1.57,0,0,0-.37,0Z" style="fill:#263238"></path><path d="M144.11,382.31c-.08.6-.16,1.76-.39,2.88a2.4,2.4,0,0,1-2.69,2.09h-.09a2.53,2.53,0,0,1-2-3v0a19,19,0,0,0,.09-4.39c-.94-5.53-4.21-9.06-9.62-10.6-1.76-.5-2.66-1.61-2.34-3s1.66-2.15,3.49-1.76C138.27,366.23,144.13,373.66,144.11,382.31Z" style="fill:#263238"></path><path d="M141.37,387.8h-.51a3,3,0,0,1-2.46-3.46v0c0-.31.05-.63.08-.95a13.17,13.17,0,0,0,0-3.32c-.9-5.28-4-8.72-9.26-10.21-2-.57-3.07-1.95-2.69-3.59s2-2.6,4.07-2.13c8.12,1.77,14,9.44,14,18.26v.06a1.8,1.8,0,0,1-.07.57c-.06.63-.16,1.49-.33,2.34A2.92,2.92,0,0,1,141.37,387.8Zm-11.84-22.87a1.86,1.86,0,0,0-2,1.48c-.36,1.57,1.27,2.21,2,2.41,5.65,1.6,9,5.3,10,11a14.3,14.3,0,0,1,0,3.58c0,.31-.06.62-.08.93a2,2,0,0,0,1.57,2.44h0a1.92,1.92,0,0,0,2.19-1.61s0-.05,0-.08c.16-.8.25-1.64.32-2.25a1.63,1.63,0,0,1,.06-.56c0-8.33-5.54-15.58-13.19-17.25A4.2,4.2,0,0,0,129.53,364.93Zm14.58,17.38Z" style="fill:#263238"></path><path d="M130.89,383.14a5.59,5.59,0,0,0-4.26-6.13c-1.7-.52-2.49-1.72-2.09-3.16s1.72-2,3.47-1.55a10.53,10.53,0,0,1,7.67,11.83c-.31,1.76-1.23,2.57-2.74,2.41s-2.2-1.19-2.09-3C130.86,383.41,130.88,383.27,130.89,383.14Z" style="fill:#263238"></path><path d="M133.29,387.06h-.4c-1.75-.18-2.67-1.46-2.53-3.52v-.42a5.1,5.1,0,0,0-3.91-5.61c-2-.61-2.9-2.06-2.43-3.78s2.07-2.41,4.08-1.9a11.08,11.08,0,0,1,8.05,12.4C135.85,386.06,134.83,387.06,133.29,387.06Zm-6.38-14.41A1.79,1.79,0,0,0,125,374c-.33,1.18.31,2.11,1.76,2.56a6.09,6.09,0,0,1,4.61,6.63h0v.4c-.15,2.28,1.2,2.42,1.64,2.47.78.08,1.86,0,2.2-2a10,10,0,0,0-7.31-11.26A4.09,4.09,0,0,0,126.91,372.65Zm4,10.49Z" style="fill:#263238"></path><path d="M116.87,372.13a.5.5,0,0,1-.47-.33l-.58-1.63a.5.5,0,0,1,.25-.66.49.49,0,0,1,.66.25l0,.08.58,1.62a.51.51,0,0,1-.31.64A.45.45,0,0,1,116.87,372.13Z" style="fill:#fff"></path><path d="M115.66,368.71a.48.48,0,0,1-.47-.33l-4-11.28a.52.52,0,0,1,.34-.66.51.51,0,0,1,.66.33l4,11.28a.5.5,0,0,1-.3.64A.58.58,0,0,1,115.66,368.71Z" style="fill:#fff"></path><path d="M143.92,406.07a.5.5,0,0,1-.33-.12l-9.71-8.48a.5.5,0,1,1,.66-.76l9.71,8.49a.49.49,0,0,1,0,.68l0,0A.47.47,0,0,1,143.92,406.07Z" style="fill:#fff"></path><path d="M133.16,396.67a.5.5,0,0,1-.33-.12l-1.6-1.39a.5.5,0,0,1,0-.71h0a.49.49,0,0,1,.69-.06h0l1.6,1.39a.51.51,0,0,1,0,.71A.48.48,0,0,1,133.16,396.67Z" style="fill:#fff"></path></g></g><g id="freepik--Device--inject-15"><g id="freepik--device--inject-15"><path d="M244.16,223.67a2,2,0,0,1-1.93-1.48c-.23-.86-23.24-86.28-27.3-113.33-2.65-17.68,2.61-28.14,7.49-33.8A29,29,0,0,1,244.85,65c17.77,0,26.86,16.12,29.18,24.64,2,7.42,5.42,20.33,5.46,20.46a2,2,0,0,1-3.87,1c0-.13-3.43-13-5.45-20.43S260.2,69,244.85,69a25.13,25.13,0,0,0-19.4,8.67c-4.33,5-9,14.42-6.56,30.6,4,26.83,27,112,27.21,112.88a2,2,0,0,1-1.41,2.45A1.88,1.88,0,0,1,244.16,223.67Z" style="fill:#263238"></path><path d="M131.45,319.55c-8.36,0-15.16-2.89-18.59-11.27-6.89-16.79,14.55-27.79,39.37-40.54,8-4.1,16.26-8.35,24.14-13,29.89-17.81,27.73-29.68,27.7-29.8a2,2,0,0,1,3.87-1c.39,1.48,2.86,15-29.52,34.25-8,4.76-16.32,9-24.36,13.17-23.07,11.84-43,22.07-37.5,35.46,6.12,14.93,27.05,7.84,47.3,1,12.54-4.24,24.38-8.25,31.77-6.24,6.58,1.8,7.93,6.36,8.65,8.81a7.66,7.66,0,0,0,.39,1.14,2,2,0,0,1-2.95,2.7,6.27,6.27,0,0,1-1.27-2.71c-.64-2.17-1.44-4.87-5.87-6.08-6.21-1.7-17.49,2.13-29.44,6.17C153.72,315.4,141.46,319.55,131.45,319.55Zm73.16-8.16Z" style="fill:#263238"></path><path d="M341.6,280.22a2,2,0,0,1-1-.25,2,2,0,0,1-.78-2.72h0c10.44-18.78,29.26-24.33,45.88-29.22a163.15,163.15,0,0,0,17.09-5.72c6.37-2.69,10-9.29,8.27-15-2.95-9.76-20.51-17.46-60.94-9.8-18.12,3.43-32,2-41.27-4.39-8-5.47-9.39-12.58-9.45-12.88a2,2,0,0,1,3.93-.74c.19.94,4.86,21.88,46,14.08,54.16-10.26,63.85,7,65.52,12.57,2.35,7.78-2.18,16.32-10.54,19.85a160.79,160.79,0,0,1-17.52,5.87c-16.66,4.91-33.87,10-43.51,27.33A2,2,0,0,1,341.6,280.22Z" style="fill:#263238"></path><path d="M279.59,122.78a4,4,0,0,1-3.85-2.94l-4.09-15a4,4,0,1,1,7.72-2.11l4.09,15a4,4,0,0,1-2.81,4.91h0A3.81,3.81,0,0,1,279.59,122.78Z" style="fill:#263238"></path><path d="M336.21,277.54s4.77-8.18,9.54-4.77-5.45,10.22-1.36,11.58,12.26-2,15,6.82-5.46,12.94-13.63,10.9S330.76,291.85,336.21,277.54Z" style="fill:#fff"></path><path d="M349.84,303.08a17.1,17.1,0,0,1-4.21-.53,15.27,15.27,0,0,1-10.09-7.7c-2.45-4.68-2.37-10.73.2-17.49v-.07c.12-.21,2.93-5,6.54-5.75a4.58,4.58,0,0,1,3.72.82c3,2.13.87,5.41-.66,7.81-.82,1.29-1.67,2.62-1.45,3.25,0,.07.1.29.61.46a14.18,14.18,0,0,0,4,.37c4.1,0,9.2,0,11.27,6.77,1.4,4.55-.07,7.37-1.56,8.94A11.52,11.52,0,0,1,349.84,303.08Zm-13.18-25.32c-2.46,6.47-2.54,12.22-.24,16.63a14.34,14.34,0,0,0,9.45,7.19c4.67,1.17,9.26.26,11.7-2.31,1.86-2,2.32-4.72,1.33-8-1.86-6-6.35-6-10.32-6.06a15.17,15.17,0,0,1-4.35-.42,1.82,1.82,0,0,1-1.24-1.08c-.39-1.09.51-2.49,1.55-4.12,1.82-2.86,3-5,.92-6.45a3.54,3.54,0,0,0-2.93-.66c-3,.69-5.62,4.86-5.87,5.28Z" style="fill:#263238"></path><path d="M355.91,301.61a.54.54,0,0,1-.28-.08.5.5,0,0,1-.14-.69c5.73-8.74-3.52-15.25-3.92-15.52a.51.51,0,0,1-.13-.7.49.49,0,0,1,.69-.13h0c.1.07,10.46,7.34,4.18,16.89A.49.49,0,0,1,355.91,301.61Z" style="fill:#263238"></path><path d="M339.8,387.57l-99.63,15.55c-6.64,1-13.41-4.52-15.11-12.42L173.32,150.64c-3-11.32,7.19-17.35,13.83-18.39l94.74-13.34c6.64-1,13.4,4.52,15.11,12.42L355.39,371C357.09,378.91,353,385.6,339.8,387.57Z" style="fill:#fff"></path><path d="M238.57,403.75c-6.31,0-12.38-5.46-14-12.94L172.83,150.74a13.47,13.47,0,0,1,1.6-11.22c3.12-4.76,8.76-7.16,12.65-7.76l94.74-13.35c6.88-1.07,13.91,4.68,15.66,12.82l58.39,239.66a12.39,12.39,0,0,1-1.62,10c-2.56,3.7-7.39,6.1-14.38,7.15l-99.62,15.55A10.5,10.5,0,0,1,238.57,403.75Zm44.92-284.47a9.86,9.86,0,0,0-1.53.12l-94.74,13.35c-3.67.57-9,2.83-11.95,7.32a12.49,12.49,0,0,0-1.47,10.44l51.75,240.08c1.65,7.64,8.17,13,14.54,12L339.72,387h0c6.71-1,11.32-3.27,13.7-6.73a11.42,11.42,0,0,0,1.48-9.24L296.51,131.45C295,124.42,289.35,119.28,283.49,119.28Z" style="fill:#263238"></path><path d="M346.61,384.85,247,400.4c-6.64,1-13.4-4.53-15.1-12.43L180.13,147.91c-1.7-7.9,2.3-15.14,8.94-16.18l99.63-15.55c6.64-1,13.41,4.53,15.11,12.43l51.74,240.06C357.26,376.57,353.25,383.81,346.61,384.85Z" style="fill:#263238"></path><path d="M245.39,401c-6.32,0-12.39-5.46-14-12.94L179.64,148a15.52,15.52,0,0,1,2.05-12,10.87,10.87,0,0,1,7.3-4.71l99.63-15.55c6.89-1.08,13.92,4.67,15.68,12.81l51.7,240a15.54,15.54,0,0,1-2,12.07,10.91,10.91,0,0,1-7.31,4.71l-99.63,15.55A10.34,10.34,0,0,1,245.39,401Zm44.92-284.46a9.86,9.86,0,0,0-1.53.12l-99.63,15.55a9.88,9.88,0,0,0-6.64,4.29,14.58,14.58,0,0,0-1.89,11.29l51.74,240.06c1.65,7.63,8.17,13,14.55,12l99.63-15.56a9.86,9.86,0,0,0,6.63-4.29,14.53,14.53,0,0,0,1.9-11.29l-51.75-240c-1.51-7-7.16-12.15-13-12.15Z" style="fill:#263238"></path><polygon points="347.1 356.33 234.63 373.88 187.54 155.39 300 137.83 347.1 356.33" style="fill:#B0BEC5"></polygon><path d="M234.63,374.38a.49.49,0,0,1-.48-.39l-47.1-218.5a.54.54,0,0,1,.07-.39.51.51,0,0,1,.34-.21l112.46-17.55a.51.51,0,0,1,.57.39l47.1,218.49a.49.49,0,0,1-.08.39.52.52,0,0,1-.33.21L234.71,374.38ZM188.14,155.8,235,373.32l111.48-17.4L299.61,138.4Z" style="fill:#263238"></path><path d="M251.47,205.56c1.15,5.51.44,10.28-1.56,10.65s-4.55-3.8-5.69-9.31-.44-10.28,1.56-10.65S250.33,200,251.47,205.56Z" style="fill:#263238"></path><path d="M276.17,200.94c1.14,5.51.44,10.28-1.57,10.66s-4.55-3.8-5.69-9.31-.44-10.28,1.56-10.65S275,195.43,276.17,200.94Z" style="fill:#263238"></path><path d="M263.54,249.81c-11.82,0-23.47-7.25-30.72-19.52a2,2,0,0,1,3.44-2c7.46,12.62,19.91,19.35,31.76,17.15,11.53-2.13,20.33-12.5,22.4-26.4a2,2,0,1,1,4,.59c-2.33,15.62-12.39,27.29-25.63,29.75A28.84,28.84,0,0,1,263.54,249.81Z" style="fill:#263238"></path><rect x="207.2" y="241.22" width="11.66" height="1" transform="translate(-97.7 326.9) rotate(-63.94)" style="fill:#fff"></rect><rect x="195.74" y="187.41" width="87.28" height="1" transform="translate(-34.59 320.4) rotate(-63.94)" style="fill:#fff"></rect><rect x="221.21" y="164.29" width="34.67" height="1" transform="translate(-17.94 299.98) rotate(-62.43)" style="fill:#fff"></rect><rect x="293.23" y="340.52" width="39.45" height="1" transform="translate(-132.58 466.45) rotate(-63.18)" style="fill:#fff"></rect><rect x="321.21" y="312.12" width="12.26" height="1" transform="translate(-99.34 463.7) rotate(-63.18)" style="fill:#fff"></rect><path d="M257.15,134.19,226.08,139a2.64,2.64,0,0,1-2.76-2.27h0a2.31,2.31,0,0,1,1.43-2.94l.2-.06L256,129a2.64,2.64,0,0,1,2.76,2.27h0a2.31,2.31,0,0,1-1.52,2.89Z" style="fill:#fff"></path><path d="M225.79,139.56a3.42,3.42,0,0,1-2.52-5.2,2.34,2.34,0,0,1,1.6-1L256,128.47a3.16,3.16,0,0,1,3.32,2.66,3.25,3.25,0,0,1-.43,2.52,2.36,2.36,0,0,1-1.61,1h0L226.2,139.5A2.7,2.7,0,0,1,225.79,139.56Zm30.54-10.11h-.22L225,134.31a1.47,1.47,0,0,0-.94.61,2.24,2.24,0,0,0-.28,1.75,2.17,2.17,0,0,0,2.19,1.88l31.08-4.85a1.4,1.4,0,0,0,.93-.62,2.42,2.42,0,0,0-.83-3.32,2.55,2.55,0,0,0-.85-.31Zm.82,4.74Z" style="fill:#263238"></path><path d="M297,374.29c-.57-2.63-2.82-4.49-5-4.14s-3.54,2.76-3,5.39,2.82,4.49,5,4.14S297.56,376.92,297,374.29Z" style="fill:#fff"></path><path d="M293.48,380.22c-2.26,0-4.43-1.93-5-4.57a5.52,5.52,0,0,1,.74-4.28,3.91,3.91,0,0,1,2.66-1.71c2.47-.39,5,1.64,5.6,4.53a5.49,5.49,0,0,1-.73,4.27,4,4,0,0,1-2.67,1.72A4,4,0,0,1,293.48,380.22Zm-1-9.61H292a3,3,0,0,0-2,1.29,4.56,4.56,0,0,0-.58,3.51c.51,2.37,2.52,4.06,4.47,3.75a2.94,2.94,0,0,0,2-1.29,4.45,4.45,0,0,0,.58-3.5h0a4.5,4.5,0,0,0-4-3.76Z" style="fill:#263238"></path><path d="M283.62,294.73l-45.92,7.91c-3,.52-5,3-4.52,5.52l5.92,28.51.16.74,3.09,14.9L251,340.13l40.62-7c3-.52,5-3,4.51-5.51L290,298.36C289.51,295.84,286.64,294.21,283.62,294.73Z" style="fill:#fff"></path><path d="M242.09,353.54l-9.4-45.28a4.57,4.57,0,0,1,.75-3.55,6.31,6.31,0,0,1,4.17-2.56l45.93-7.91c3.27-.56,6.41,1.24,7,4l6.07,29.26a4.59,4.59,0,0,1-.74,3.54,6.35,6.35,0,0,1-4.18,2.57l-40.41,6.95Zm42.66-58.4a5.55,5.55,0,0,0-1,.09l-45.93,7.91a5.31,5.31,0,0,0-3.52,2.14,3.58,3.58,0,0,0-.59,2.77l8.94,43,8.08-11.41,40.82-7A5.32,5.32,0,0,0,295,330.5a3.62,3.62,0,0,0,.6-2.78l-6.08-29.25C289.14,296.5,287.09,295.14,284.75,295.14Z" style="fill:#263238"></path><path d="M280.33,311.86h0a3.9,3.9,0,0,0-.09-1.18v-.22c-.78-3.78-5.08-6.2-9.59-5.43-3.55.61-6.17,3-6.75,5.87a8.68,8.68,0,0,0-8.64-3.22c-4.51.78-7.53,4.47-6.75,8.24,0,0-.12,3.23,7.54,7.92,6.29,3.86,11.6,7,11.7,6.87.13.07,3.95-4.6,8.44-10.33a20.48,20.48,0,0,0,3.91-7,5.55,5.55,0,0,0,.22-1.06A3.37,3.37,0,0,1,280.33,311.86Z" style="fill:#B0BEC5"></path><path d="M267.67,331.2a.42.42,0,0,1-.19-.06h0c-.93-.31-3.51-1.8-11.74-6.85-7.28-4.47-7.75-7.75-7.78-8.29a6.65,6.65,0,0,1,1.09-5.07,9.28,9.28,0,0,1,6.08-3.72,9.48,9.48,0,0,1,8.51,2.64,8.78,8.78,0,0,1,6.87-5.29c4.77-.82,9.33,1.79,10.17,5.82v.16a4.85,4.85,0,0,1,.11,1.37h0a1.6,1.6,0,0,1-.05.47,6.51,6.51,0,0,1-.23,1.15,21.24,21.24,0,0,1-4,7.16c-5.83,7.46-7.73,9.73-8.48,10.33h0a.33.33,0,0,1-.3.14Zm.17-.94h0ZM256.91,308a8.47,8.47,0,0,0-1.59.14,8.13,8.13,0,0,0-5.42,3.3,5.67,5.67,0,0,0-.93,4.34v.12s.09,3.05,7.3,7.48c5.78,3.54,10.26,6.17,11.34,6.72.82-.88,4.05-4.84,8.14-10.07a20.31,20.31,0,0,0,3.83-6.83,5.71,5.71,0,0,0,.2-1v-.41h0a3.38,3.38,0,0,0-.07-1,.43.43,0,0,1,0-.16c-.74-3.59-4.78-5.85-9-5.11-3.24.55-5.79,2.75-6.34,5.47a.49.49,0,0,1-.59.38.47.47,0,0,1-.31-.2A7.92,7.92,0,0,0,256.91,308Zm23.42,3.83Z" style="fill:#263238"></path><path d="M209.49,313.72s-2.88-9-8.27-6.73,3.09,11.16-1.19,11.6-11.53-4.66-16.12,3.39,2.51,13.82,10.93,13.61S211.7,328.87,209.49,313.72Z" style="fill:#fff"></path><path d="M194.39,336.09c-5,0-9.39-2-11.33-5.29-1.11-1.85-1.94-4.93.42-9.06,3.48-6.12,8.47-5,12.47-4.16a14.6,14.6,0,0,0,4,.52c.53-.06.65-.26.69-.32.36-.57-.18-2-.7-3.49-1-2.67-2.31-6.33,1.05-7.76a4.61,4.61,0,0,1,3.81,0c3.35,1.54,5.06,6.81,5.14,7v.08c1.05,7.16-.2,13.08-3.6,17.12a15.3,15.3,0,0,1-11.53,5.32Zm-3.16-18.19c-2.5,0-4.94.92-6.88,4.33-1.68,2.94-1.83,5.73-.44,8.06,1.82,3,6.1,4.92,10.92,4.8a14.29,14.29,0,0,0,10.78-5c3.21-3.8,4.38-9.43,3.39-16.28-.16-.47-1.77-5.1-4.59-6.39a3.57,3.57,0,0,0-3,0c-2.31,1-1.66,3.31-.5,6.5.66,1.81,1.23,3.38.61,4.36a1.83,1.83,0,0,1-1.44.78,14.8,14.8,0,0,1-4.34-.53A21.5,21.5,0,0,0,191.23,317.9Z" style="fill:#263238"></path><path d="M190.62,322.25c-.29,1.08-1,1.82-1.64,1.65s-.89-1.17-.59-2.25,1-1.83,1.64-1.66S190.91,321.17,190.62,322.25Z" style="fill:#263238"></path><path d="M186.61,324c-.29,1.08-1,1.82-1.64,1.66s-.89-1.18-.6-2.26,1-1.82,1.65-1.65S186.9,322.89,186.61,324Z" style="fill:#263238"></path><path d="M189.12,328.39c-.29,1.08-1,1.83-1.64,1.66s-.88-1.18-.59-2.26,1-1.82,1.64-1.65S189.41,327.31,189.12,328.39Z" style="fill:#263238"></path><path d="M189.54,334.55a.49.49,0,0,1-.46-.31.48.48,0,0,1,.26-.64h0a7.84,7.84,0,0,0,2.27-1.45.5.5,0,0,1,.67.74,8.74,8.74,0,0,1-2.56,1.64A.63.63,0,0,1,189.54,334.55Z" style="fill:#263238"></path><path d="M193.19,331.65a.47.47,0,0,1-.3-.1.5.5,0,0,1-.1-.7h0a10.78,10.78,0,0,0,1.71-3.38,9.63,9.63,0,0,0-.6-7.65.51.51,0,0,1,.18-.69.53.53,0,0,1,.69.18,10.73,10.73,0,0,1,.69,8.45,11.69,11.69,0,0,1-1.87,3.69A.52.52,0,0,1,193.19,331.65Z" style="fill:#263238"></path></g></g></svg>